<?xml version="1.0" encoding="UTF-8"?>
<svg id="Camada_2" data-name="Camada 2" xmlns="http://www.w3.org/2000/svg" viewBox="0 0 237.33 237.19">
  <defs>
    <style>
      .cls-1 {
        fill: #fffdf2;
      }
    </style>
  </defs>
  <g id="Camada_19" data-name="Camada 19">
    <g>
      <path class="cls-1" d="M218.64,54.98C175.2-12.66,79.37-19.09,27.34,42.35,9.06,63.93.19,90.84,0,117.64c0,.3,0,.6,0,.9,0,41.63,20.92,82.89,60.05,103.49,13.04,6.87,18.77,8.47,30.69-2.13,25.09-22.3,14.7-60.12,38.59-78.73,19.11-14.88,42.31-1.39,63.93-1.08-.03.2-.07.4-.1.6-2.12,13.64-2.93,28.77-17.16,35.52-11.85,5.62-28.81.82-43.41-1.88-2.63-.49-5.19-.91-7.63-1.18,1.45-4.42,3.8-8.58,6.93-12.12,6.62-7.63,16.49-12.31,26.68-13-20.29-1.56-38.43,12.3-42.96,31.52,0,.02-.01.05-.02.07-.25,1.15-.47,2.32-.65,3.51,0,.02-.01.05-.01.07-2.91,18.69,1.96,40.7,10.32,53.99,2.98-.16,5.91-.42,8.81-.8,61.19-7.77,103.15-61.22,103.27-118.15.05-21.34-5.79-43.17-18.69-63.26ZM79.41,151.84c8.11,4,16.91,6.48,25.88,7.68l-1.9,1.26c-11.64,4.09-21.64,5.7-33.82,2.66-21.29-5.31-30.73-25.42-43.31-41.23,22.39-15.46,47.89-18.62,63.85,6.96,7.14,11.44,6.89,14.31,17.29,23.91-5.3,0-10.64-.49-15.85-1.49-13.44-2.7-26.62-8.91-35.99-19.12,6.05,8.41,14.61,14.75,23.85,19.38ZM139.78,120.53c-3.22,4.11-16.11,17.55-22.16,22.78-1.64-10.3-1.6-20.85-.29-31.2,1.33-9.28,3.54-18.53,7.44-27.11-4.84,8.17-8.09,17.34-10.44,26.54-2.57,10.58-3.62,21.55-3.2,32.45l-7.73-8.57c-16.06-18.93-14.41-47.4.62-66.5,2.47-3.14,24.39-25.7,26.19-25.38,23.46,18.58,28.19,53.24,9.57,77Z"/>
      <path class="cls-1" d="M115.6,179.62c-.25,1.15-.47,2.32-.65,3.51.17-1.19.39-2.36.65-3.51Z"/>
    </g>
  </g>
</svg>